<svg xmlns="http://www.w3.org/2000/svg" width="74.589" height="27.044"><path d="M36.431 27.044a1.805 1.805 0 0 1-1.802-1.884l.831-18.743-15.69 15.936c-.34.343-.803.537-1.286.537H1.804a1.803 1.803 0 1 1 0-3.607h15.924L36.184.538a1.803 1.803 0 0 1 3.087 1.346l-.824 18.62L49.512 8.868a1.805 1.805 0 0 1 3.111 1.241v9.47h20.162a1.804 1.804 0 1 1 0 3.608H50.82a1.803 1.803 0 0 1-1.803-1.804v-6.759L37.738 26.483c-.347.365-.822.56-1.307.56Z" fill="#f9871a" fill-rule="evenodd" data-name="Path 5973"/></svg>