<svg xmlns="http://www.w3.org/2000/svg" width="23" height="23" viewBox="1527.5 7506.5 23 23"><g data-name="CompositeLayer"><path d="M3 0h18a3 3 0 0 1 3 3v5a3 3 0 0 1-3 3H3a3 3 0 0 1-3-3V3a3 3 0 0 1 3-3z" stroke-linejoin="round" stroke-linecap="round" stroke="#4fbae9" fill="transparent" transform="matrix(.95833 0 0 .9091 1527.5 7519.5)" data-name="Rectangle 2426"/><path d="M3 0h18a3 3 0 0 1 3 3v5a3 3 0 0 1-3 3H3a3 3 0 0 1-3-3V3a3 3 0 0 1 3-3z" stroke-linejoin="round" stroke-linecap="round" stroke="#4fbae9" fill="transparent" transform="matrix(.95833 0 0 .9091 1527.5 7506.5)" data-name="Rectangle 2423"/></g></svg>